# xmcd
#
# Track frame offsets:
#	150
#	16634
#	36050
#	50722
#	63303
#
# Disc length: 1024 seconds
#
# Revision: 1
# Processed by: cddbd v1.5.2PL0 Copyright (c) Steve Scherf et al.
# Submitted via: audiograbber 1.83.01
#
DISCID=3603fe05
DTITLE=Sounds In The Alley - Time To Start
DYEAR=2012
DGENRE=Indie
TTITLE0=Time To Start
TTITLE1=Always
TTITLE2=Stand Back My Door
TTITLE3=Rollin' In
TTITLE4=You Don't Know Where You're Wrong
EXTD=
EXTT0=
EXTT1=
EXTT2=
EXTT3=
EXTT4=
PLAYORDER=
